<svg xmlns="http://www.w3.org/2000/svg" xmlns:xlink="http://www.w3.org/1999/xlink" width="500" zoomAndPan="magnify"
    viewBox="0 0 375 149.999998" height="200" preserveAspectRatio="xMidYMid meet" version="1.0">
    <defs>
        <g />
    </defs>
    <g fill="#000000" fill-opacity="1">
        <g transform="translate(135.26953, 66.139211)">
            <g>
                <path
                    d="M 0 -43.59375 L 31.613281 -43.59375 L 31.613281 -37.578125 C 31.613281 -37.578125 31.066406 -42.882812 21.824219 -43.101562 L 19.527344 -43.101562 C 18.980469 -42.554688 18.597656 -41.625 18.597656 -40.476562 L 18.597656 -3.0625 C 18.597656 -1.257812 19.527344 0 20.675781 0 L 10.941406 0 C 11.980469 0 12.910156 -1.148438 12.964844 -2.84375 L 12.964844 -40.75 C 12.910156 -41.789062 12.582031 -42.609375 12.089844 -43.101562 L 9.789062 -43.101562 C 0.546875 -42.882812 0 -37.578125 0 -37.578125 Z M 0 -43.59375 " />
            </g>
        </g>
    </g>
    <g fill="#000000" fill-opacity="1">
        <g transform="translate(169.670479, 66.139211)">
            <g>
                <path
                    d="M 9.679688 0 L 0 0 C 1.039062 0 1.914062 -1.148438 2.023438 -2.84375 L 2.023438 -40.75 C 1.914062 -42.445312 1.039062 -43.59375 0 -43.59375 L 9.679688 -43.59375 C 8.585938 -43.59375 7.65625 -42.335938 7.65625 -40.53125 L 7.65625 -22.917969 C 7.65625 -22.425781 8.148438 -22.097656 8.859375 -22.042969 L 25.433594 -22.042969 C 26.089844 -22.097656 26.582031 -22.425781 26.582031 -22.863281 L 26.582031 -40.75 C 26.527344 -42.445312 25.652344 -43.59375 24.558594 -43.59375 L 34.296875 -43.59375 C 33.203125 -43.59375 32.273438 -42.335938 32.273438 -40.476562 L 32.273438 -3.0625 C 32.273438 -1.257812 33.203125 0 34.296875 0 L 24.558594 0 C 25.652344 0 26.527344 -1.148438 26.582031 -2.84375 L 26.582031 -20.730469 C 26.582031 -21.167969 26.035156 -21.496094 25.269531 -21.550781 L 8.96875 -21.550781 L 9.023438 -21.550781 C 8.203125 -21.496094 7.65625 -21.113281 7.65625 -20.675781 L 7.65625 -3.117188 C 7.65625 -1.257812 8.585938 0 9.679688 0 Z M 9.679688 0 " />
            </g>
        </g>
    </g>
    <g fill="#000000" fill-opacity="1">
        <g transform="translate(206.751314, 66.139211)">
            <g>
                <path
                    d="M 30.136719 -43.59375 L 30.191406 -43.59375 L 30.191406 -37.578125 C 30.191406 -37.578125 29.863281 -42.117188 20.402344 -43.101562 L 8.585938 -43.101562 C 8.039062 -42.554688 7.65625 -41.625 7.65625 -40.476562 L 7.65625 -22.316406 L 13.839844 -22.316406 C 18.324219 -23.082031 18.761719 -25.160156 18.761719 -25.160156 L 18.761719 -18.980469 C 18.761719 -18.980469 18.324219 -21.058594 13.839844 -21.824219 L 7.65625 -21.824219 L 7.65625 -3.0625 C 7.65625 -1.96875 8.039062 -1.039062 8.53125 -0.546875 L 20.457031 -0.546875 C 29.863281 -1.53125 30.191406 -6.070312 30.191406 -6.070312 L 30.191406 0 L 0 0 C 1.039062 0 1.914062 -1.148438 2.023438 -2.84375 L 2.023438 -40.75 C 1.914062 -42.445312 1.039062 -43.59375 0 -43.59375 Z M 30.136719 -43.59375 " />
            </g>
        </g>
    </g>
    <g fill="#000000" fill-opacity="1">
        <g transform="translate(-1.791343, 134.086585)">
            <g>
                <path
                    d="M 17.917969 -43.9375 C 28.667969 -43.9375 32.527344 -37.433594 32.46875 -29.492188 C 32.414062 -22.273438 27.949219 -16.484375 17.863281 -16.429688 L 7.71875 -16.429688 L 7.71875 -3.140625 C 7.71875 -1.269531 8.65625 0 9.757812 0 L 0 0 C 1.046875 0 1.929688 -1.15625 2.039062 -2.867188 L 2.039062 -41.070312 C 1.929688 -42.78125 1.046875 -43.9375 0 -43.9375 Z M 8.601562 -43.441406 C 8.105469 -42.890625 7.71875 -41.953125 7.71875 -40.851562 L 7.71875 -16.925781 L 13.671875 -16.925781 C 26.40625 -17.089844 26.351562 -27.398438 26.40625 -29.4375 C 26.40625 -30.816406 27.5625 -43.441406 13.121094 -43.441406 Z M 8.601562 -43.441406 " />
            </g>
        </g>
    </g>
    <g fill="#000000" fill-opacity="1">
        <g transform="translate(33.431481, 134.086585)">
            <g>
                <path
                    d="M 9.8125 -43.9375 C 8.710938 -43.9375 7.773438 -42.722656 7.773438 -40.851562 L 7.773438 -3.140625 C 7.773438 -1.984375 8.160156 -1.046875 8.710938 -0.550781 L 20.617188 -0.550781 C 30.101562 -1.542969 30.429688 -6.121094 30.429688 -6.121094 L 30.429688 0 L 0 -0.0546875 C 1.101562 -0.0546875 1.984375 -1.15625 2.09375 -2.921875 L 2.09375 -41.070312 C 1.984375 -42.78125 1.101562 -43.9375 0 -43.9375 Z M 9.8125 -43.9375 " />
            </g>
        </g>
    </g>
    <g fill="#000000" fill-opacity="1">
        <g transform="translate(66.669921, 134.086585)">
            <g>
                <path
                    d="M 13.671875 -43.9375 L 23.484375 -43.9375 C 22.328125 -43.9375 21.832031 -42.667969 22.382812 -40.851562 L 34.179688 -3.140625 C 34.785156 -1.269531 36.109375 0 37.210938 0 L 27.398438 0 C 28.5 0 29.050781 -1.15625 28.554688 -2.867188 L 22.933594 -20.839844 C 22.769531 -21.335938 22.382812 -21.71875 21.554688 -21.71875 L 11.246094 -21.71875 C 10.472656 -21.71875 10.035156 -21.335938 9.921875 -20.839844 L 4.246094 -2.867188 C 3.804688 -1.15625 4.300781 0 5.402344 0 L 0 0 C 1.101562 0 2.425781 -1.269531 3.03125 -3.140625 L 14.828125 -40.851562 C 15.269531 -42.394531 14.996094 -43.550781 14.222656 -43.828125 C 14.003906 -43.882812 13.835938 -43.9375 13.671875 -43.9375 Z M 22.214844 -23.042969 L 16.59375 -41.070312 C 16.539062 -41.234375 16.484375 -41.402344 16.429688 -41.566406 C 16.316406 -41.402344 16.261719 -41.234375 16.207031 -41.070312 L 10.585938 -23.042969 C 10.472656 -22.65625 10.472656 -22.273438 11.136719 -22.214844 L 21.664062 -22.214844 C 22.382812 -22.273438 22.328125 -22.65625 22.214844 -23.042969 Z M 22.214844 -23.042969 " />
            </g>
        </g>
    </g>
    <g fill="#000000" fill-opacity="1">
        <g transform="translate(106.688345, 134.086585)">
            <g>
                <path
                    d="M 16.8125 -17.972656 L 3.636719 -41.070312 C 2.589844 -42.78125 1.046875 -43.9375 0 -43.9375 L 9.757812 -43.9375 C 8.65625 -43.9375 8.433594 -42.667969 9.480469 -40.796875 L 21.886719 -19.128906 L 34.566406 -40.851562 C 35.667969 -42.667969 35.449219 -43.9375 34.34375 -43.9375 L 39.746094 -43.9375 C 38.699219 -43.9375 37.101562 -42.78125 36 -41.070312 L 22.546875 -18.027344 L 22.546875 -3.085938 C 22.546875 -1.269531 23.484375 0 24.585938 0 L 14.773438 0 C 15.878906 0 16.757812 -1.15625 16.8125 -2.867188 Z M 16.8125 -17.972656 " />
            </g>
        </g>
    </g>
    <g fill="#000000" fill-opacity="1">
        <g transform="translate(149.242378, 134.086585)">
            <g>
                <path
                    d="M 38.3125 -5.238281 C 34.457031 -4.796875 29.4375 -0.714844 22.933594 -0.109375 C 11.464844 0.9375 1.269531 -7.992188 0.109375 -20.066406 C -0.992188 -32.140625 7.386719 -42.835938 18.855469 -43.882812 C 26.847656 -44.652344 32.414062 -41.402344 34.34375 -38.644531 C 34.839844 -38.09375 35.503906 -37.761719 36.054688 -37.816406 L 28.003906 -37.101562 C 28.722656 -37.15625 29.933594 -37.816406 29.605469 -38.753906 C 28.390625 -41.457031 23.925781 -43.605469 18.910156 -43.332031 C 10.585938 -42.78125 4.742188 -32.359375 5.84375 -20.5625 C 6.945312 -8.765625 14.554688 0.164062 22.878906 -0.605469 C 24.699219 -0.773438 26.847656 -1.433594 28.832031 -2.371094 C 29.824219 -2.921875 30.484375 -3.636719 30.597656 -5.238281 L 30.597656 -19.183594 C 30.484375 -20.894531 29.605469 -22.050781 28.554688 -22.050781 L 38.3125 -22.050781 C 37.210938 -22.050781 36.273438 -20.839844 36.273438 -18.964844 L 36.273438 -8.378906 C 36.273438 -6.503906 37.210938 -5.238281 38.3125 -5.238281 Z M 38.3125 -5.238281 " />
            </g>
        </g>
    </g>
    <g fill="#000000" fill-opacity="1">
        <g transform="translate(190.363241, 134.086585)">
            <g>
                <path
                    d="M 9.8125 0 L 0 0 C 1.101562 0 1.984375 -1.15625 2.039062 -2.867188 L 2.039062 -41.070312 C 1.984375 -42.78125 1.101562 -43.9375 0 -43.9375 L 17.917969 -43.9375 C 28.667969 -43.9375 32.582031 -37.433594 32.527344 -29.492188 C 32.46875 -23.152344 28.996094 -17.863281 21.28125 -16.703125 C 23.152344 -16.316406 23.429688 -15.269531 24.367188 -13.671875 L 29.4375 -3.140625 C 30.320312 -1.269531 31.808594 -0.0546875 32.96875 -0.0546875 L 23.152344 -0.0546875 C 24.203125 -0.0546875 24.585938 -1.15625 23.816406 -2.921875 L 18.578125 -13.890625 C 17.972656 -15.050781 17.144531 -15.933594 16.316406 -16.429688 L 7.773438 -16.429688 L 7.773438 -3.140625 C 7.773438 -1.269531 8.710938 0 9.8125 0 Z M 13.121094 -43.441406 L 8.65625 -43.441406 C 8.105469 -42.890625 7.773438 -41.953125 7.773438 -40.851562 L 7.773438 -16.925781 L 13.671875 -16.925781 C 26.40625 -17.089844 26.40625 -27.398438 26.40625 -29.4375 C 26.460938 -30.816406 27.5625 -43.441406 13.121094 -43.441406 Z M 13.121094 -43.441406 " />
            </g>
        </g>
    </g>
    <g fill="#000000" fill-opacity="1">
        <g transform="translate(225.641202, 134.086585)">
            <g>
                <path
                    d="M 20.894531 -43.992188 C 32.359375 -43.992188 41.675781 -34.125 41.675781 -21.996094 C 41.675781 -9.867188 32.359375 0 20.894531 0 C 9.371094 0 0.0546875 -9.867188 0.0546875 -21.996094 C 0.0546875 -34.125 9.371094 -43.992188 20.894531 -43.992188 Z M 20.894531 -43.386719 C 12.515625 -43.386719 5.789062 -33.792969 5.789062 -21.941406 C 5.789062 -10.144531 12.515625 -0.550781 20.894531 -0.550781 C 29.21875 -0.550781 35.945312 -10.144531 35.945312 -21.941406 C 35.945312 -33.792969 29.21875 -43.386719 20.894531 -43.386719 Z M 20.894531 -43.386719 " />
            </g>
        </g>
    </g>
    <g fill="#000000" fill-opacity="1">
        <g transform="translate(270.014253, 134.086585)">
            <g>
                <path
                    d="M 2.039062 -13.285156 C 2.039062 -13.5625 2.039062 -41.070312 2.039062 -41.070312 C 1.984375 -42.78125 1.101562 -43.9375 0 -43.9375 L 9.8125 -43.9375 C 8.710938 -43.9375 7.773438 -42.667969 7.773438 -40.851562 L 7.773438 -8.160156 C 7.773438 -2.867188 12.019531 -0.496094 17.308594 -0.496094 C 22.546875 -0.496094 26.847656 -2.867188 26.847656 -8.160156 L 26.847656 -41.070312 C 26.738281 -42.78125 25.855469 -43.9375 24.808594 -43.9375 L 34.621094 -43.9375 C 33.464844 -43.9375 32.527344 -42.667969 32.527344 -40.796875 C 32.527344 -40.796875 32.527344 -12.734375 32.527344 -12.460938 C 32.085938 -4.464844 25.414062 0 17.308594 0 C 8.875 0 2.039062 -4.90625 2.039062 -13.285156 Z M 2.039062 -13.285156 " />
            </g>
        </g>
    </g>
    <g fill="#000000" fill-opacity="1">
        <g transform="translate(307.441965, 134.086585)">
            <g>
                <path
                    d="M 9.867188 -43.9375 C 8.765625 -43.9375 8.433594 -42.722656 9.316406 -40.851562 L 27.289062 -3.140625 C 27.34375 -3.03125 27.398438 -2.921875 27.453125 -2.8125 C 27.453125 -2.921875 27.453125 -3.03125 27.453125 -3.140625 L 27.507812 -40.851562 C 27.507812 -42.667969 26.570312 -43.9375 25.46875 -43.9375 L 30.871094 -43.9375 C 29.769531 -43.9375 28.886719 -42.78125 28.832031 -41.070312 L 28.777344 -2.867188 C 28.886719 -1.378906 29.109375 0 30.816406 0 L 21.058594 -0.0546875 C 22.105469 -0.0546875 22.492188 -1.15625 21.71875 -2.921875 L 3.527344 -41.070312 C 3.472656 -41.125 3.417969 -41.179688 3.417969 -41.234375 C 3.417969 -41.179688 3.417969 -41.125 3.417969 -41.070312 L 3.363281 -2.867188 C 3.472656 -1.15625 4.355469 0 5.402344 0 L 0 0 C 1.15625 0 2.039062 -1.269531 2.039062 -3.140625 L 2.09375 -40.851562 C 2.09375 -42.667969 1.15625 -43.9375 0.0546875 -43.9375 L 0.21875 -43.9375 C 0.164062 -43.9375 0.164062 -43.9375 0.109375 -43.9375 Z M 9.867188 -43.9375 " />
            </g>
        </g>
    </g>
    <g fill="#000000" fill-opacity="1">
        <g transform="translate(341.066276, 134.086585)">
            <g>
                <path
                    d="M 11.851562 0 L 0 0 C 1.046875 0 1.984375 -1.15625 2.039062 -2.867188 L 2.039062 -41.070312 C 1.984375 -42.78125 1.046875 -43.9375 0 -43.9375 L 11.90625 -43.9375 C 29.988281 -43.992188 32.855469 -29.273438 32.910156 -22.105469 C 32.96875 -14.113281 30.320312 0 11.851562 0 Z M 8.601562 -43.441406 C 8.105469 -42.890625 7.71875 -41.953125 7.71875 -40.851562 L 7.71875 -3.140625 C 7.71875 -1.984375 8.105469 -1.046875 8.601562 -0.550781 C 27.507812 -0.9375 26.902344 -20.34375 26.847656 -22.105469 C 26.792969 -24.144531 28.445312 -43.277344 9.097656 -43.441406 Z M 8.601562 -43.441406 " />
            </g>
        </g>
    </g>
</svg>